<?xml version="1.0" standalone="no"?>
<!DOCTYPE svg PUBLIC "-//W3C//DTD SVG 20010904//EN"
 "http://www.w3.org/TR/2001/REC-SVG-20010904/DTD/svg10.dtd">
<svg version="1.0" xmlns="http://www.w3.org/2000/svg"
 width="570.000000pt" height="428.000000pt" viewBox="0 0 570.000000 428.000000"
 preserveAspectRatio="xMidYMid meet">

<g transform="translate(0.000000,428.000000) scale(0.100000,-0.100000)"
fill="#000000" stroke="none">
<path d="M3965 4024 c-5 -2 -491 -101 -1080 -219 -588 -119 -1227 -248 -1420
-286 -192 -39 -352 -72 -353 -74 -2 -2 28 -155 67 -340 l71 -336 0 -1133 0
-1133 1193 -8 c656 -4 1329 -4 1495 0 l302 8 0 1117 0 1118 -163 6 c-89 3
-448 11 -797 16 -349 6 -837 15 -1085 20 -247 6 -501 10 -564 10 -63 0 -112 3
-108 6 3 3 74 21 159 39 200 43 1020 223 1713 375 303 67 595 130 650 142 55
11 103 24 107 27 3 3 -18 119 -48 256 -93 433 -83 395 -107 394 -12 0 -26 -2
-32 -5z m-161 -116 c-4 -13 -50 -149 -104 -303 l-97 -280 -89 -22 c-49 -12
-106 -25 -126 -28 l-37 -7 101 304 c55 167 102 304 103 306 2 3 224 50 243 51
9 1 11 -6 6 -21z m-661 -255 c-30 -87 -78 -225 -107 -308 l-51 -150 -125 -26
c-69 -15 -126 -26 -128 -24 -1 1 32 101 74 221 42 120 89 258 106 306 l29 87
52 10 c29 6 84 17 122 25 39 8 73 15 77 15 3 1 -19 -70 -49 -156z m-583 20 c0
-20 -194 -589 -204 -599 -13 -13 -233 -60 -242 -52 -4 5 191 594 201 606 1 2
216 48 238 51 4 1 7 -2 7 -6z m1489 -143 c12 -52 21 -97 21 -101 0 -8 -109
-33 -116 -27 -2 2 13 54 33 116 21 61 38 110 40 109 1 -1 11 -45 22 -97z
m-2103 15 c-3 -9 -49 -148 -102 -310 -83 -255 -98 -296 -117 -300 -177 -40
-237 -50 -237 -43 0 16 211 602 220 611 8 9 192 55 224 56 12 1 16 -4 12 -14z
m-573 -232 c-25 -76 -49 -142 -53 -146 -3 -4 -17 49 -30 118 -12 69 -19 129
-16 133 7 7 97 29 128 31 14 1 9 -20 -29 -136z m165 -631 c-16 -39 -145 -252
-152 -252 -5 0 -6 14 -2 31 3 17 6 76 6 130 l0 99 76 0 c42 0 74 -3 72 -8z
m2449 -15 c7 -1 -62 -126 -152 -277 l-163 -275 -126 -3 c-69 -1 -126 0 -126 2
0 3 42 76 93 163 52 87 126 212 165 279 l71 121 113 -4 c62 -2 118 -5 125 -6z
m-1899 -6 c-1 -5 -73 -131 -158 -280 l-155 -271 -128 0 c-71 0 -126 3 -124 8
2 4 75 130 162 280 l157 272 125 0 c72 0 123 -4 121 -9z m615 -39 c-16 -26
-89 -152 -163 -280 l-134 -232 -127 0 -127 0 150 258 c82 141 156 267 164 280
14 21 21 22 139 22 l125 0 -27 -48z m657 41 c0 -4 -73 -130 -161 -280 l-162
-273 -129 0 -128 0 14 23 c7 12 73 123 146 247 73 124 141 240 152 258 l20 32
124 0 c68 0 124 -3 124 -7z m800 -448 l0 -105 -60 0 c-33 0 -60 3 -60 7 0 9
110 203 116 203 2 0 4 -47 4 -105z"/>
</g>
</svg>
